<?xml version="1.0" encoding="UTF-8" standalone="no"?>
<!DOCTYPE svg PUBLIC "-//W3C//DTD SVG 1.1//EN" "http://www.w3.org/Graphics/SVG/1.1/DTD/svg11.dtd">
<svg width="100%" height="100%" viewBox="0 0 2874 826" version="1.1" xmlns="http://www.w3.org/2000/svg" xmlns:xlink="http://www.w3.org/1999/xlink" xml:space="preserve" xmlns:serif="http://www.serif.com/" style="fill-rule:evenodd;clip-rule:evenodd;stroke-linejoin:round;stroke-miterlimit:2;">
    <g transform="matrix(1,0,0,1,-287,-1751)">
        <g transform="matrix(1,0,0,1,-5.162005,52.130129)">
            <g transform="matrix(3.021484,0,0,3.021484,194.193177,1125.133148)">
                <path d="M623.505,191.452C628.394,191.972 636.407,189.262 640.393,191.703C642.54,193.018 655.348,187.581 666.449,191.632C668.775,192.48 681.38,188.709 693.645,192.005C694.558,192.25 694.511,191.133 705.463,191.833C711.556,192.222 711.707,193.441 717.402,191.224C722.59,189.203 727.864,192.521 747.491,192.929C753.882,193.061 819.7,198.637 823.543,199.166C837.649,201.108 866.069,204.131 873.467,205.648C877.416,206.458 877.619,205.145 887.572,208.279C894.101,210.334 896.778,216.574 891.469,215.854C889.486,215.585 888.418,215.441 866.505,214.245C863.919,214.104 863.423,217.485 867.494,217.411C873.475,217.303 876.828,223.076 883.402,223.994C884.973,224.213 897.196,230.188 898.377,230.766C900.785,231.943 901.265,231.13 902.861,233.2C903.495,234.022 919.155,243.94 923.422,244.89C926.497,245.574 925.442,247.415 928.577,248.235C931.027,248.876 931.429,250.78 932.576,251.252C934.497,252.043 935.36,250.944 965.522,277.476C967.845,279.519 967.727,284.812 973.674,287.204C974.63,287.589 984.975,301.61 983.273,315.474C981.98,326.002 984.553,330.857 973.253,343.362C972.769,343.898 972.832,343.829 972.328,344.424C971.042,345.941 972.378,345.918 972.607,346.561C967.425,351.505 965.161,348.567 960.085,355.187C957.694,358.303 925.867,377.94 889.567,387.738C875.05,391.657 875.056,391.353 860.596,395.787C849.053,399.327 748.435,420.73 723.48,423.361C719.924,423.735 720.046,424.349 716.499,424.188C714.711,424.107 715.04,426.102 694.461,428.06C687.902,428.684 688.058,429.38 681.441,430.024C651.837,432.908 652.085,434.635 630.467,436.085C623.876,436.527 624.115,437.753 617.468,438.004C598.522,438.718 598.781,442.198 582.512,441.301C581.222,441.23 581.427,442.257 566.475,443.291C553.747,444.171 553.933,445.594 538.534,445.804C536.061,445.838 525.335,448.458 496.545,449.912C492.934,450.095 493.043,450.779 451.508,453.714C430.438,455.203 429.421,455.239 427.497,455.307C423.97,455.432 424.026,455.961 383.487,458.333C342.647,460.722 341.949,460.591 338.402,459.923C336.442,459.554 336.525,461.18 313.507,461.176C284.959,461.171 285.05,461.415 256.491,460.858C245.344,460.64 245.539,464.105 239.424,462.794C234.2,461.674 234.542,460.161 226.485,459.737C60.944,451.033 46.72,412.55 41.597,407.403C41.169,406.973 14.039,373.089 55.839,330.831C67.468,319.074 102.569,294.448 115.424,290.25C117.755,289.489 124.595,283.156 131.529,281.964C133.222,281.673 150.967,270.806 161.518,269.623C162.054,269.562 161.83,269.048 167.567,266.644C168.349,266.316 169.637,264.478 171.612,263.953C176.133,262.75 175.845,262.103 180.473,261.301C181.466,261.129 181.076,259.854 192.53,257.641C193.2,257.512 192.759,256.319 200.573,254.785C203.874,254.136 213.002,248.989 221.521,247.891C227.536,247.115 240.446,239.542 249.497,239.568C254.089,239.581 253.966,237.768 258.497,238.706C259.417,238.896 258.745,236.645 269.543,234.734C272.637,234.187 272.321,233.024 275.511,233.007C283.006,232.967 282.156,228.779 294.495,228.12C305.778,227.518 305.158,224.592 316.475,223.27C334.906,221.117 343.125,216.363 352.496,216.179C357.946,216.072 371.216,213.042 374.501,212.879C379.72,212.621 379.429,211.55 384.459,210.337C390.391,208.908 391.877,211.856 398.693,208.977C402.197,207.498 407.775,208.373 415.515,206.55C420.687,205.332 421.064,207.349 425.779,204.994C427,204.384 434.942,204.862 438.614,203.886C450.418,200.747 450.496,203.991 451.469,203.657C452.793,203.203 452.133,202.264 453.597,201.976C454.938,201.714 454.955,202.031 470.553,199.945C472.059,199.743 472.056,200.061 489.505,198.641C490.78,198.537 500.274,197.764 505.479,197.835C508.219,197.872 509.524,196.034 521.49,196.095C522.485,196.1 524.965,194.67 527.493,194.722C535.226,194.88 535.227,196.387 541.582,194.915C542.497,194.703 558.999,193.12 560.514,192.974C562.627,192.772 574.306,193.156 575.504,193.196C580.759,193.369 586.636,191.225 590.447,191.819C591.024,191.909 595.569,192.617 597.648,193.004C598.432,193.149 605.337,191.28 612.562,192.055C614.543,192.267 615.854,190.407 623.505,191.452Z"/>
            </g>
            <g transform="matrix(3.021484,0,0,3.021484,194.193177,1125.133148)">
                <path d="M663.5,204.034C674.679,204.303 683.226,203.366 696.531,204.173C701.752,204.49 713.16,203.453 730.486,204.72C740.615,205.461 785.794,207.381 794.475,208.677C799.142,209.374 799.32,208.019 808.363,210.926C818.919,214.319 831.732,217.542 839.477,221.547C842.052,222.879 854.582,224.84 887.668,243.205C931.14,267.335 937.672,274.274 954.36,291.631C964.99,302.688 968.613,324.314 955.153,335.082C944.325,343.746 936.534,352.888 890.405,369.225C883.756,371.58 873.122,372.757 869.216,376.198C865.817,379.193 859.955,375.155 844.304,383.115C842.316,384.126 839.58,382.565 837.189,385.226C835.286,387.344 833.233,383.75 827.651,385.865C821.555,388.173 820.048,387.371 819.191,389.254C818.236,391.353 815.16,389.806 814.633,389.946C808.656,391.529 808.698,391.624 802.533,391.144C802.257,391.122 792.684,393.475 792.548,393.571C786.204,398.068 782.68,393.351 766.575,399.716C765.887,399.987 765.686,398.824 757.458,401.272C756.537,401.546 756.535,400.692 745.518,402.584C743.329,402.96 743.726,403.986 741.517,404.084C736.958,404.285 736.877,403.754 732.584,405.662C730.403,406.631 725.162,405.781 721.591,406.828C706.247,411.328 686.997,412.392 683.566,412.967C674.991,414.405 674.83,413.16 666.556,415.708C661.476,417.272 661.147,414.852 644.496,418.476C642.849,418.834 642.666,417.17 623.578,420.946C613.289,422.981 596.572,421.111 590.252,425.138C588.745,426.098 577.602,425.936 576.5,425.92C571.941,425.853 572.119,427.165 567.518,427.044C564.544,426.966 564.592,427.039 530.468,430.15C517.747,431.31 513.945,432.269 512.541,432.623C512.255,432.695 498.835,433.237 490.456,434.144C476.446,435.66 437.194,438.545 432.559,438.886C424.615,439.47 419.614,438.777 409.482,440.371C409.163,440.421 330.484,444.932 308.5,444.954C299.9,444.963 300.007,445.263 291.518,444.998C291.037,444.983 291.053,445.307 285.506,445.174C280.973,445.066 281.057,443.434 275.498,444.483C261.99,447.033 248.955,441.027 239.422,445.303C238.184,445.858 238.237,443.815 222.522,443.854C220.497,443.859 175.809,439.902 169.564,438.266C167.843,437.816 167.781,438.429 147.477,435.679C140.422,434.723 140.639,434.031 133.536,433.207C128.711,432.647 99.08,426.327 83.679,419.106C56.791,406.498 48.041,390.019 49.892,370.57C50.073,368.668 56.383,356.291 56.794,355.705C58.419,353.39 59.433,354.143 60.181,351.43C60.999,348.462 81.235,329.265 98.292,318.17C132.66,295.815 148.869,292.214 155.45,287.445C156.874,286.413 157.15,287.011 175.669,278.844C181.788,276.145 193.673,273.804 199.666,269.794C200.774,269.052 201.196,270.355 215.435,264.37C220.744,262.139 226.864,263.06 234.54,258.565C236.397,257.477 236.925,259.463 260.503,251.508C265,249.991 265.862,251.635 275.398,247.29C281.817,244.366 282.375,246.754 289.39,244.217C303.705,239.04 364.882,228.566 371.49,227.434C381.031,225.801 380.878,225.265 390.488,224.314C393.3,224.036 393.203,223.666 425.435,219.135C489.043,210.194 553.363,207.312 557.478,207.017C569.06,206.186 569.959,207.32 574.484,205.463C577.456,204.244 581.838,207.032 601.548,204.84C606.426,204.297 617.014,205.724 627.574,203.832C632.27,202.99 637.776,204.694 642.444,204.059C652.921,202.636 652.909,203.874 663.5,204.034Z" style="fill:rgb(32,177,74);"/>
            </g>
            <g transform="matrix(3.021484,0,0,3.021484,194.193177,1125.133148)">
                <path d="M833.822,270.717C830.009,272.297 831.106,273.383 828.692,276.683C828.507,276.936 828.457,277.005 827.224,280.317C825.369,284.26 825.59,284.285 824.277,288.451L823.87,289.573C823.38,299.865 818.495,303.167 814.209,321.432C811.26,333.997 805.7,345.134 807.82,365.449C808.526,372.213 814.829,371.555 812.098,378.503L813.542,380.493C812.689,383.462 811.537,381.958 808.52,382.589C779.763,388.608 791.814,358.232 784.483,361.471C784.216,361.589 784.435,361.756 782.211,364.326L781.318,365.434C780.863,365.999 780.463,365.97 780.946,366.494C781.406,366.991 782.217,367.06 782.676,367.557C780.102,370.444 779.38,371.756 779.156,372.162C778.492,372.01 778.052,371.288 777.387,371.136C776.229,370.872 776.585,371.517 775.532,373.51C775.479,375.926 775.412,376.07 770.001,382.028C768.881,383.26 762.327,390.476 750.522,389.345C746.198,388.931 725.771,391.785 725.691,365.498C725.62,342.49 746.933,319.03 755.856,312.99C772.082,302.008 779.21,308.353 785.065,316.823C787.587,320.472 789.048,319.237 791.212,315.344C806.884,287.152 800.194,284.238 817.667,250.585C820.22,245.67 827.405,244.085 829.315,245.74C834.623,250.34 834.746,250.195 835.029,250.732C838.629,257.558 837.711,257.787 837.406,258.451C836.457,260.517 838.561,261.161 833.822,270.717ZM746.039,364.433C745.5,369.184 746.305,371.703 750.273,369.135C761.582,361.814 778.796,336.606 778.674,335.421C778.484,333.587 774.436,336.944 770.233,331.69C765.842,326.2 752.238,348.253 750.988,350.751C747.288,358.147 746.265,363.292 746.039,364.433Z"/>
            </g>
            <g transform="matrix(3.021484,0,0,3.021484,194.193177,1125.133148)">
                <path d="M302.41,374.006C299.146,375.058 295.432,378.842 287.411,375.707C281.21,373.283 286.458,357.277 284.611,357.141C283.923,357.09 267.456,370.99 251.48,376.441C232.748,382.832 223.976,371.961 221.718,369.321C211.948,357.901 223.973,320.899 253.567,305.622C273.956,295.097 293.162,313.969 284.655,319.856C274.783,326.687 267.989,316.7 261.807,320.985C238.948,336.828 231.495,362.918 244.486,358.458C268.392,350.249 290.767,314.86 300.019,302.142C304.818,295.545 317.908,242.095 326.876,237.93C335.008,234.153 335.166,237.333 342.156,242.961C351.001,250.084 326.42,293.182 322.76,304.589C320.328,312.171 321.307,312.498 317.342,319.403C316.797,320.352 317.832,320.621 313.733,332.601C313.002,334.738 307.245,359.285 307.632,362.486C308.476,369.461 308.479,372.035 302.41,374.006Z"/>
            </g>
            <g transform="matrix(3.021484,0,0,3.021484,194.193177,1125.133148)">
                <path d="M395.042,373.51C397.898,346.594 410.57,329.373 418.419,314.45C420.977,309.585 426.846,305.172 428.634,304.906C429.269,304.811 429.189,305.384 436.527,306.315C438.881,306.614 439.477,311.867 440.436,312.581C444.946,315.941 440.129,319.604 436.963,324.777C427.481,340.271 427.581,340.309 426.748,341.649C425.545,343.581 413.356,370.031 417.461,370.108C418.723,370.132 437.502,352.838 439.33,350.376C444.503,343.41 445.732,344.379 449.83,336.65C452.982,330.705 452.873,330.744 455.924,324.706C460.711,315.23 469.101,318.513 470.277,319.73C479.575,329.344 479.125,331.541 471.756,342.671C462.424,356.768 460.899,369.955 461.565,370.411C463.411,371.674 463.212,369.96 468.92,362.871C486.069,341.571 481.852,323.819 487.465,320.444C492.889,317.181 495.125,314.849 503.046,322.922C508.651,328.634 499.689,356.641 490.743,368.686C483.931,377.858 480.428,389.125 467.526,391.649C444.613,396.133 443.783,385.053 441.114,378.773C439.64,375.303 432.173,388.527 422.381,391.06C404.533,395.677 396.995,393.565 395.042,373.51Z"/>
            </g>
            <g transform="matrix(3.021484,0,0,3.021484,194.193177,1125.133148)">
                <path d="M670.491,387.068C662.502,386.622 637.451,387.762 646.954,349.587C648.128,344.87 654.553,330.23 661.713,322.714C664.236,320.064 673.471,309.071 685.517,306.576C685.978,306.481 688.202,306.02 691.391,306.935C694.9,307.941 694.817,308.08 698.51,308.389C702.576,308.73 706.757,314 707.294,314.677C710.027,318.123 710.884,316.076 714.507,316.424C719.189,316.873 728.874,327.327 723.848,334.731C722.633,336.521 707.966,367.215 716.124,374.908C720.151,378.706 724.468,390.208 717.553,389.211C712.711,388.512 703.658,392.352 696.862,384.194C694.272,381.085 694.927,375.78 690.23,380.195C683.267,386.742 677.541,386.607 670.491,387.068ZM663.99,363.552C663.363,381.924 693.262,351.633 690.021,329.551C688.814,321.322 667.359,343.984 664.606,360.514C664.436,361.533 664.159,362.533 663.99,363.552Z"/>
            </g>
            <g transform="matrix(3.021484,0,0,3.021484,194.193177,1125.133148)">
                <path d="M322.991,345.582C327.221,333.57 326.582,333.258 333.832,322.722C339.165,314.973 347.973,307.547 348.82,306.969C360.474,299.032 364.18,295.141 375.662,303.225C377.705,304.664 381.902,300.723 386.343,302.852C406.282,312.411 397.393,339.639 391.392,347.413C383.732,357.334 379.997,367.885 366.607,373.734C330.292,389.595 317.715,367.12 322.991,345.582ZM342.082,356.492C343.917,372.904 377.114,341.861 377.049,323.522C377.048,323.234 375.113,317.293 372.521,317.682C370.492,317.986 362.243,319.223 351.693,332.641C348.646,336.517 345.419,342.796 344.945,343.719C343.438,346.65 342.225,355.454 342.082,356.492Z"/>
            </g>
            <g transform="matrix(3.021484,0,0,3.021484,194.193177,1125.133148)">
                <path d="M582.922,345.553C582.263,347.957 582.241,347.936 582.224,348.248C580.316,350.639 580.697,350.764 579.84,353.716C579.356,353.984 578.679,353.232 578.195,353.5C578.02,353.597 578.134,353.674 576.962,355.674C576.841,355.882 577.053,355.87 578.217,358.406C577,360.829 577.659,360.986 576.664,363.57C572.593,374.145 572.458,374.169 572.117,385.43C569.02,385.616 568.641,386.58 568.396,390.251C565.783,389.225 564.851,389.546 564.557,389.647C563.787,389.912 558.52,391.726 554.378,389.7C543.368,384.312 563.065,339.642 563.077,339.478C563.233,337.39 559.436,337.595 559.981,339.574C560.588,341.783 559.701,341.584 557.812,342.92C555.744,344.383 555.174,346.06 553.313,347.18C546.443,351.316 535.149,365.91 533.762,367.703C522.332,382.473 525.753,389.001 520.482,388.88C515.959,388.777 516.135,391.088 512.568,390.088C508.423,388.926 508.111,389.943 504.413,387.616C502.159,386.197 501.42,379.6 501.736,378.576C502.295,376.768 514.232,348.568 514.7,347.601C525.197,325.902 527.33,315.021 532.358,313.104C533.649,312.612 533.034,310.785 534.498,311.527C538.017,313.313 537.52,314.623 541.476,314.686C543.844,314.723 543.558,321.321 544.292,322.638C546.602,326.785 547.548,324.738 547.604,324.694C558.854,315.841 565.826,313.376 567.581,312.756C574.858,310.183 585.67,314.464 586.382,330.505C586.564,334.616 585.445,334.424 585.178,337.482C585.12,338.15 584.932,340.308 582.922,345.553Z"/>
            </g>
            <g transform="matrix(3.021484,0,0,3.021484,194.193177,1125.133148)">
                <path d="M607.512,383.959C597.909,383.659 596.788,380.408 596.478,379.508C592.344,367.52 613.637,336.728 636.62,288.569C653.624,252.938 656.36,253.83 658.508,254.48C666.108,256.782 668,255.306 668.928,260.461C669.386,263.002 670.026,262.867 669.833,265.497C669.757,266.53 671.314,267.841 670.063,270.275C668.59,273.141 667.774,272.569 650.775,305.638C648.37,310.315 648.957,310.501 621.858,364.67C616.302,375.774 617.979,376.258 617.621,378.517C617.299,380.546 617.996,382.483 607.512,383.959Z"/>
            </g>
        </g>
    </g>
</svg>
